<?xml version="1.0" standalone="no"?><!DOCTYPE svg PUBLIC "-//W3C//DTD SVG 1.1//EN" "http://www.w3.org/Graphics/SVG/1.1/DTD/svg11.dtd"><svg t="1560066876736" class="icon" style="" viewBox="0 0 1024 1024" version="1.1" xmlns="http://www.w3.org/2000/svg" p-id="1022" xmlns:xlink="http://www.w3.org/1999/xlink" width="200" height="200"><defs><style type="text/css"></style></defs><path d="M512 0C230.4 0 0 230.4 0 512s230.4 512 512 512 512-230.4 512-512-230.4-512-512-512z m238.933333 631.466667c34.133333 34.133333 34.133333 85.333333 0 119.466666s-85.333333 34.133333-119.466666 0L512 631.466667 392.533333 750.933333c-34.133333 34.133333-85.333333 34.133333-119.466666 0s-34.133333-85.333333 0-119.466666L392.533333 512 273.066667 392.533333c-34.133333-34.133333-34.133333-85.333333 0-119.466666s85.333333-34.133333 119.466666 0L512 392.533333l119.466667-119.466666c34.133333-34.133333 85.333333-34.133333 119.466666 0s34.133333 85.333333 0 119.466666L631.466667 512l119.466666 119.466667z" fill="#d81e06" p-id="1023"></path></svg>